<svg width="48" height="48" viewBox="0 0 48 48" fill="none" xmlns="http://www.w3.org/2000/svg">
<circle cx="24" cy="24" r="24" fill="#171219"/>
<path d="M29.167 36.4766C29.9321 36.1593 30.8095 36.522 31.127 37.2871C31.4443 38.0523 31.0816 38.9297 30.3164 39.2471C28.3688 40.0547 26.2345 40.5 24 40.5C21.7655 40.5 19.6312 40.0547 17.6836 39.2471C16.9184 38.9297 16.5557 38.0523 16.873 37.2871C17.1905 36.522 18.0679 36.1593 18.833 36.4766C20.4226 37.1357 22.1669 37.5 24 37.5C25.8331 37.5 27.5774 37.1357 29.167 36.4766ZM23.8643 14.7275C28.9098 14.7279 33 18.8186 33 23.8643C32.9997 28.9096 28.9096 32.9997 23.8643 33C18.8186 33 14.7279 28.9098 14.7275 23.8643C14.7275 18.8184 18.8184 14.7275 23.8643 14.7275ZM8.75293 17.6836C9.0703 16.9184 9.94769 16.5557 10.7129 16.873C11.478 17.1905 11.8407 18.0679 11.5234 18.833C10.8643 20.4226 10.5 22.1669 10.5 24C10.5 25.8331 10.8643 27.5774 11.5234 29.167C11.8407 29.9321 11.478 30.8095 10.7129 31.127C9.94769 31.4443 9.0703 31.0816 8.75293 30.3164C7.94531 28.3688 7.5 26.2345 7.5 24C7.5 21.7655 7.94531 19.6312 8.75293 17.6836ZM37.2871 16.873C38.0523 16.5557 38.9297 16.9184 39.2471 17.6836C40.0547 19.6312 40.5 21.7655 40.5 24C40.5 26.2345 40.0547 28.3688 39.2471 30.3164C38.9297 31.0816 38.0523 31.4443 37.2871 31.127C36.522 30.8095 36.1593 29.9321 36.4766 29.167C37.1357 27.5774 37.5 25.8331 37.5 24C37.5 22.1669 37.1357 20.4226 36.4766 18.833C36.1593 18.0679 36.522 17.1905 37.2871 16.873ZM23.8643 17.7275C20.4752 17.7275 17.7275 20.4752 17.7275 23.8643L17.7354 24.1797C17.8945 27.3171 20.4104 29.833 23.5479 29.9922L23.8643 30C27.147 29.9997 29.8277 27.4216 29.9922 24.1797L30 23.8643C30 20.5812 27.4218 17.8998 24.1797 17.7354L23.8643 17.7275ZM24 7.5C26.2345 7.5 28.3688 7.94531 30.3164 8.75293C31.0816 9.0703 31.4443 9.94769 31.127 10.7129C30.8095 11.478 29.9321 11.8407 29.167 11.5234C27.5774 10.8643 25.8331 10.5 24 10.5C22.1669 10.5 20.4226 10.8643 18.833 11.5234C18.0679 11.8407 17.1905 11.478 16.873 10.7129C16.5557 9.94769 16.9184 9.0703 17.6836 8.75293C19.6312 7.94531 21.7655 7.5 24 7.5Z" fill="#3039A1"/>
</svg>
