<svg width="39" height="30" viewBox="0 0 39 30" fill="none" xmlns="http://www.w3.org/2000/svg">
<path d="M5.31818 30C3.84091 30 2.58523 29.4853 1.55114 28.4559C0.517045 27.4265 0 26.1765 0 24.7059C0 23.9412 0.147727 23.2132 0.443182 22.5221C0.738636 21.8309 1.18182 21.2353 1.77273 20.7353V12.3529H5.31818V1.76471H19.5L27.8318 21.3088C28.0091 21.7206 28.142 22.1324 28.2307 22.5441C28.3193 22.9559 28.3636 23.3824 28.3636 23.8235C28.3636 25.5294 27.758 26.9853 26.5466 28.1912C25.3352 29.3971 23.8727 30 22.1591 30C20.9477 30 19.8324 29.6838 18.8131 29.0515C17.7937 28.4191 17.033 27.5588 16.5307 26.4706H10.3261C9.94205 27.5294 9.29205 28.3824 8.37614 29.0294C7.46023 29.6765 6.44091 30 5.31818 30ZM30.1364 28.2353V0H33.6818V24.7059H39V28.2353H30.1364ZM6.58125 25.9632C6.92102 25.625 7.09091 25.2059 7.09091 24.7059C7.09091 24.2059 6.92102 23.7868 6.58125 23.4485C6.24148 23.1103 5.82045 22.9412 5.31818 22.9412C4.81591 22.9412 4.39489 23.1103 4.05511 23.4485C3.71534 23.7868 3.54545 24.2059 3.54545 24.7059C3.54545 25.2059 3.71534 25.625 4.05511 25.9632C4.39489 26.3015 4.81591 26.4706 5.31818 26.4706C5.82045 26.4706 6.24148 26.3015 6.58125 25.9632ZM24.0426 25.6985C24.5597 25.1838 24.8182 24.5588 24.8182 23.8235C24.8182 23.0882 24.5597 22.4632 24.0426 21.9485C23.5256 21.4338 22.8977 21.1765 22.1591 21.1765C21.4205 21.1765 20.7926 21.4338 20.2756 21.9485C19.7585 22.4632 19.5 23.0882 19.5 23.8235C19.5 24.5588 19.7585 25.1838 20.2756 25.6985C20.7926 26.2132 21.4205 26.4706 22.1591 26.4706C22.8977 26.4706 23.5256 26.2132 24.0426 25.6985ZM10.3261 22.9412H15.9989C16.058 22.6176 16.1244 22.3162 16.1983 22.0368C16.2722 21.7574 16.383 21.4706 16.5307 21.1765H12.542L7.35682 15.8824H5.31818V19.4118C6.44091 19.4118 7.46023 19.7353 8.37614 20.3824C9.29205 21.0294 9.94205 21.8824 10.3261 22.9412ZM14.0489 17.6471H22.425L17.1511 5.29412H8.86364V12.3529L14.0489 17.6471ZM12.542 21.1765L11.7222 20.3382C11.1756 19.7794 10.5847 19.1691 9.94943 18.5074C9.3142 17.8456 8.7233 17.2426 8.1767 16.6985L7.35682 15.8824L12.542 21.1765Z" fill="url(#paint0_linear_408_64)"/>
<defs>
<linearGradient id="paint0_linear_408_64" x1="-5.81145e-07" y1="30" x2="39" y2="5.49853e-07" gradientUnits="userSpaceOnUse">
<stop stop-color="#3031A1"/>
<stop offset="1" stop-color="#4F57B8"/>
</linearGradient>
</defs>
</svg>
